# xmcd
#
# Track frame offsets:
#	150
#	15590
#	32195
#	47903
#	66400
#	84549
#	98258
#	116109
#	134282
#	149358
#	165206
#	179337
#	196084
#	210512
#	228716
#	247394
#	264391
#	279363
#	296544
#
# Disc length: 4160 seconds
#
# Revision: 1
# Processed by: cddbd v1.4PL0 Copyright (c) Steve Scherf et al.
# Submitted via: EasyCDDAExtractor 5.0.6
#
DISCID=13103e13
DTITLE=Various Artist - Saloon Tunes Vol. 60
DYEAR=1900
DGENRE=
TTITLE0=Lines, Aaron - Living Out Loud
TTITLE1=Tippin, Aaron - Love Like There's No Tomorrow   W Thea Tippin
TTITLE2=Dalley, Amy - Love's Got An Attitude
TTITLE3=James, Brett - After All
TTITLE4=Bates, Jeff - Love Song
TTITLE5=Montgomery, John Michael - Country Thang
TTITLE6=Chesney, Kenny - Big Star
TTITLE7=Greenword, Lee - Rocks That You Can't Move
TTITLE8=Tillis, Pam - So Wrong
TTITLE9=Vasser, Phil - This Is God
TTITLE10=Rascal Flatts - Love You Out Loud
TTITLE11=Foster, Radney - Scary Old World
TTITLE12=Kershaw, Sammy - I Want My Money Back
TTITLE13=Holy, Steve - Rock-A-Bye Baby
TTITLE14=McGraw, Tim - She's My Kind Of Rain
TTITLE15=Keith, Toby - Rock You Baby
TTITLE16=James, Tracey - You're The Reason Why
TTITLE17=Tritt, Travis - Country Ain't Country
TTITLE18=Trick Pony - A Boy Like You
EXTD=
EXTT0=
EXTT1=
EXTT2=
EXTT3=
EXTT4=
EXTT5=
EXTT6=
EXTT7=
EXTT8=
EXTT9=
EXTT10=
EXTT11=
EXTT12=
EXTT13=
EXTT14=
EXTT15=
EXTT16=
EXTT17=
EXTT18=
PLAYORDER=
